<?xml version="1.0" standalone="no"?>
<!DOCTYPE svg PUBLIC "-//W3C//DTD SVG 20010904//EN"
 "http://www.w3.org/TR/2001/REC-SVG-20010904/DTD/svg10.dtd">
<svg version="1.0" xmlns="http://www.w3.org/2000/svg"
 width="176.000000pt" height="107.000000pt" viewBox="0 0 176.000000 107.000000"
 preserveAspectRatio="xMidYMid meet">

<g transform="translate(0.000000,107.000000) scale(0.100000,-0.100000)"
fill="#000000" stroke="none">
<path d="M0 535 l0 -535 375 0 375 0 0 135 0 135 69 0 c86 0 101 -15 101 -101
0 -78 -27 -113 -82 -106 -38 5 -38 5 -38 -29 l0 -34 480 0 480 0 0 535 0 535
-275 0 -275 0 0 -145 0 -145 -30 0 -30 0 0 120 0 120 -120 0 -120 0 0 25 0 25
-180 0 -179 0 -4 -142 -3 -143 -2 143 -2 142 -270 0 -270 0 0 -535z m810 290
l0 -55 65 0 65 0 0 55 c0 48 2 55 20 55 19 0 20 -7 20 -135 0 -128 -1 -135
-20 -135 -18 0 -20 7 -20 60 l0 60 -65 0 -65 0 0 -60 c0 -57 -1 -60 -25 -60
l-25 0 0 135 0 135 25 0 c24 0 25 -3 25 -55z m-210 -240 l0 -125 120 0 120 0
0 -25 0 -25 -150 0 -150 0 0 143 c0 79 3 147 7 150 3 4 17 7 30 7 23 0 23 -1
23 -125z m610 -25 l0 -150 -150 0 -150 0 0 25 0 25 120 0 120 0 0 125 0 125
30 0 30 0 0 -150z m-500 -355 c0 -128 -1 -135 -20 -135 -19 0 -20 7 -20 135 0
128 1 135 20 135 19 0 20 -7 20 -135z m-440 65 l0 -50 60 0 60 0 0 50 c0 47 2
50 25 50 l25 0 0 -125 0 -125 -25 0 c-24 0 -25 3 -25 55 l0 55 -60 0 -60 0 0
-55 c0 -48 -2 -55 -20 -55 -19 0 -20 7 -20 125 0 118 1 125 20 125 17 0 20 -7
20 -50z m340 -10 c18 -10 40 -59 40 -91 0 -17 -9 -19 -71 -19 l-71 0 14 -23
c20 -29 45 -33 68 -12 19 17 50 15 50 -4 0 -16 -30 -40 -56 -47 -32 -8 -70 2
-94 26 -29 29 -28 127 0 158 23 24 86 30 120 12z m710 -10 c6 -10 10 -55 10
-99 0 -80 0 -81 -25 -81 -25 0 -25 1 -25 80 0 78 -1 80 -24 80 -30 0 -36 -16
-36 -96 0 -57 -2 -64 -20 -64 -17 0 -20 7 -20 49 0 76 -10 111 -31 111 -27 0
-39 -31 -39 -99 0 -54 -2 -61 -20 -61 -19 0 -20 7 -20 99 l0 99 120 0 c107 0
121 -2 130 -18z m176 12 c19 -12 34 -49 34 -81 l0 -31 -65 0 c-36 0 -65 -3
-65 -7 0 -3 7 -15 17 -25 20 -22 51 -24 59 -3 7 17 40 20 49 5 3 -5 -5 -21
-19 -35 -52 -52 -138 -21 -151 55 -8 46 9 105 33 120 20 11 92 13 108 2z
m-456 -92 c0 -17 -7 -20 -50 -20 -43 0 -50 3 -50 20 0 17 7 20 50 20 43 0 50
-3 50 -20z"/>
<path d="M520 210 c-10 -19 -8 -20 35 -20 46 0 54 7 33 28 -19 19 -56 14 -68
-8z"/>
<path d="M1410 211 c-10 -20 -8 -21 30 -21 34 0 41 3 38 18 -5 26 -54 28 -68
3z"/>
<path d="M806 215 c-11 -31 -6 -92 9 -105 34 -29 72 26 57 83 -6 24 -14 33
-34 35 -16 2 -28 -3 -32 -13z"/>
</g>
</svg>
